<?xml version="1.0"?>
<svg xmlns="http://www.w3.org/2000/svg" id="Layer_1" data-name="Layer 1" viewBox="0 0 128 128" width="512" height="512"><title>CAMERA</title><path d="M89.3,51.375H79.75a1.25,1.25,0,0,0,0,2.5h8.3v25.75H39.947V53.875H54.227a1.25,1.25,0,0,0,1.183-.845L57,48.375H71L72.59,53.03a1.25,1.25,0,0,0,2.365-.81l-1.883-5.5a1.25,1.25,0,0,0-1.183-.845H56.11a1.25,1.25,0,0,0-1.183.845l-1.593,4.655H49.856V48.959a1.25,1.25,0,0,0-1.25-1.25h-5.5a1.25,1.25,0,0,0-1.25,1.25v2.416H38.7a1.25,1.25,0,0,0-1.25,1.25v28.25a1.25,1.25,0,0,0,1.25,1.25H89.3a1.25,1.25,0,0,0,1.25-1.25V52.625A1.25,1.25,0,0,0,89.3,51.375ZM44.356,50.209h3v1.166h-3Z"/><path d="M64,54.706A11.063,11.063,0,1,0,75.062,65.768,11.075,11.075,0,0,0,64,54.706Zm0,19.625a8.563,8.563,0,1,1,8.562-8.562A8.572,8.572,0,0,1,64,74.331Z"/><path d="M64,59.94a1.25,1.25,0,0,0,0,2.5,3.331,3.331,0,0,1,3.328,3.328,1.25,1.25,0,1,0,2.5,0A5.834,5.834,0,0,0,64,59.94Z"/></svg>
