<svg id="Capa_1" enable-background="new 0 0 512 512" height="512" viewBox="0 0 512 512" width="512" xmlns="http://www.w3.org/2000/svg"><g><g><path d="m317.709 264.5c17.122-16.951 17.283-44.572.349-61.721-16.935-17.149-44.556-17.334-61.721-.425-16.951-17.123-44.573-17.285-61.722-.35-17.148 16.935-17.334 44.555-.425 61.72l55.483 56.185c3.252 3.294 8.559 3.327 11.853.074z" fill="#fb4a59"/><path d="m317.712 264.499-56.184 55.484c-3.297 3.256-8.603 3.223-11.859-.074l-11.01-11.149 53.62-52.952c17.12-16.949 17.285-44.572.345-61.718-1.549-1.577-3.191-3.004-4.91-4.297 11.02.186 21.989 4.521 30.343 12.989 16.932 17.145 16.776 44.769-.345 61.717z" fill="#f82f40"/></g><path d="m257.13 75.767c-99.537-.624-180.738 79.565-181.363 179.103s79.565 180.739 179.102 181.363c99.538.624 180.739-79.565 181.363-179.102s-79.564-180.739-179.102-181.364zm-2.072 330.358c-82.91-.52-149.703-68.156-149.183-151.066s68.156-149.703 151.066-149.183 149.703 68.156 149.183 151.066-68.155 149.703-151.066 149.183z" fill="#e0d3ce"/><path d="m257.13 75.767c-3.803-.024-7.568.07-11.315.282 94.227 6.434 168.383 85.206 167.783 180.94l-7.474-.047c-.087 13.885-2.084 27.306-5.693 40.046 4.336.027 7.471 4.182 6.283 8.352-20.628 72.415-85.37 126.138-163.156 130.47 3.743.259 7.507.4 11.31.424 99.537.624 180.739-79.566 181.364-179.103s-79.564-180.74-179.102-181.364z" fill="#cdbfbb"/><path d="m111.065 295.173c-3.449-12.784-5.277-26.229-5.19-40.114l-30.108-.189c-.086 13.779 1.403 27.197 4.252 40.108z" fill="#cdbfbb"/><g><g><path d="m256.675 148.33c-8.121-.051-14.663-6.676-14.612-14.796l.699-111.421c.051-8.121 6.676-14.663 14.796-14.612 8.121.051 14.663 6.676 14.612 14.796l-.699 111.421c-.05 8.121-6.675 14.663-14.796 14.612z" fill="#64b9fc"/></g><g><path d="m254.441 504.5c-8.121-.051-14.663-6.676-14.612-14.796l.699-111.421c.051-8.121 6.676-14.663 14.796-14.612s14.663 6.676 14.612 14.796l-.699 111.421c-.05 8.121-6.675 14.663-14.796 14.612z" fill="#64b9fc"/></g></g><g><g><path d="m489.703 272.17-111.421-.699c-8.121-.051-14.663-6.676-14.612-14.796.051-8.121 6.676-14.663 14.796-14.612l111.421.699c8.121.051 14.663 6.676 14.612 14.796-.05 8.121-6.675 14.663-14.796 14.612z" fill="#64b9fc"/></g><g><g><path d="m504.5 257.559c-.051 8.117-6.68 14.663-14.796 14.612l-24.84-.156c8.117.051 14.745-6.495 14.796-14.612s-6.495-14.745-14.612-14.796l24.84.156c8.117.05 14.663 6.679 14.612 14.796z" fill="#31a7fb"/></g></g><g><path d="m133.533 269.937-111.421-.699c-8.121-.051-14.663-6.676-14.612-14.796.051-8.121 6.676-14.663 14.796-14.612l111.421.699c8.121.051 14.663 6.676 14.612 14.796s-6.675 14.663-14.796 14.612z" fill="#64b9fc"/></g><g><path d="m148.327 255.325c-.051 8.117-6.67 14.663-14.796 14.612l-24.84-.156c8.126.051 14.745-6.495 14.796-14.612s-6.485-14.745-14.612-14.796l24.84.156c8.126.05 14.663 6.679 14.612 14.796z" fill="#31a7fb"/></g></g><g><path d="m189.345 196.669c-20.051 19.801-20.274 52.244-.492 72.326l9.272 9.39c2.91 2.948 7.659 2.978 10.606.067 2.948-2.91 2.978-7.659.067-10.606l-9.266-9.384c-13.979-14.191-13.821-37.124.352-51.121 14.175-13.997 37.107-13.866 51.122.29 2.91 2.939 7.648 2.969 10.593.066 14.192-13.98 37.124-13.822 51.122.352 13.997 14.173 13.867 37.106-.282 51.114l-56.184 55.485c-.345.342-.904.338-1.247-.007l-20.966-21.232c-2.91-2.948-7.658-2.978-10.606-.067-2.948 2.91-2.978 7.659-.067 10.606l20.966 21.233c3.102 3.141 7.2 4.714 11.301 4.714 4.033 0 8.069-1.523 11.158-4.574l56.19-55.491c20.026-19.827 20.209-52.27.408-72.321-18.133-18.362-46.866-20.098-66.995-5.073-19.938-15.275-48.689-13.899-67.052 4.233z"/><path d="m172.887 437.275c-44.22-20.3-79.447-55.972-99.19-100.443-1.681-3.786-6.111-5.49-9.898-3.812-3.786 1.681-5.492 6.112-3.812 9.898 21.228 47.812 59.1 86.163 106.643 107.988 1.014.466 2.077.686 3.124.686 2.841 0 5.558-1.623 6.821-4.373 1.728-3.763.077-8.216-3.688-9.944z"/><path d="m339.113 74.725c44.22 20.3 79.446 55.972 99.19 100.443 1.242 2.797 3.984 4.458 6.859 4.458 1.017 0 2.05-.208 3.04-.647 3.786-1.681 5.492-6.112 3.812-9.898-21.228-47.812-59.101-86.163-106.643-107.988-3.765-1.729-8.217-.077-9.945 3.687-1.729 3.764-.078 8.217 3.687 9.945z"/><path d="m505.595 241.864c-4.167-4.22-9.729-6.565-15.66-6.602l-47.373-.297c-9.613-86.242-77.339-154.589-163.188-165.247l.047-7.57c.026-4.142-3.311-7.521-7.453-7.547-4.112-.035-7.521 3.311-7.547 7.453l-.449 71.616c-.012 1.924-.772 3.729-2.142 5.081-1.358 1.341-3.154 2.079-5.061 2.079-.016 0-.031 0-.046 0-1.924-.012-3.729-.772-5.081-2.142-1.352-1.369-2.09-3.183-2.078-5.107l.699-111.421c.012-1.924.772-3.729 2.142-5.081 1.369-1.352 3.164-2.123 5.107-2.078 3.972.025 7.184 3.277 7.159 7.249l-.024 3.879c-.026 4.142 3.311 7.521 7.453 7.547h.048c4.12 0 7.473-3.327 7.499-7.453l.024-3.879c.037-5.931-2.238-11.521-6.405-15.741s-9.729-6.564-15.659-6.602c-.048 0-.096 0-.144 0-5.877 0-11.412 2.271-15.598 6.405-4.22 4.167-6.565 9.729-6.602 15.66l-.129 20.574c-49.034 4.75-95.173 26.438-130.275 61.335-34.759 34.554-56.63 80.007-61.945 128.484l-20.571-.129c-.047 0-.094 0-.141 0-12.179 0-22.126 9.869-22.202 22.065-.037 5.931 2.237 11.521 6.405 15.742s9.729 6.565 15.66 6.602l47.372.297c4.674 41.741 23.418 81 53.12 111.016 29.611 29.923 68.522 49.049 110.07 54.231l-.297 47.374c-.077 12.244 9.822 22.267 22.064 22.343h.144c5.877 0 11.412-2.271 15.598-6.405 4.22-4.167 6.565-9.729 6.602-15.66l.129-20.574c49.305-4.775 95.634-26.652 130.81-61.869 34.471-34.51 56.108-79.723 61.4-127.95l20.579.129h.141c12.179 0 22.126-9.869 22.202-22.065.038-5.931-2.237-11.522-6.404-15.742zm-78.142-6.994-15.25-.096c-4.599-34.044-20.479-66.045-44.942-90.426-23.86-23.78-54.944-39.358-88.079-44.267l.096-15.26c77.567 10.435 138.685 72.124 148.175 150.049zm-170.825-79.04h.141c12.179 0 22.126-9.869 22.202-22.065l.116-18.514c27.692 4.535 52.838 17.219 72.841 35.476l-14.124 13.948c-2.947 2.911-2.977 7.659-.066 10.606 1.467 1.486 3.401 2.23 5.337 2.23 1.903 0 3.808-.72 5.27-2.164l14.127-13.951c17.996 20.206 30.375 45.494 34.559 73.283l-18.517-.116c-.048 0-.096 0-.144 0-5.877 0-11.412 2.271-15.598 6.406-4.22 4.167-6.565 9.729-6.602 15.66-.076 12.244 9.822 22.267 22.065 22.343l18.52.116c-4.539 27.769-17.179 52.914-35.403 72.895l-14.027-14.204c-2.91-2.947-7.659-2.978-10.606-.066-2.947 2.911-2.977 7.659-.066 10.606l14.03 14.207c-20.19 17.974-45.484 30.323-73.362 34.511l.116-18.523c.077-12.244-9.822-22.267-22.065-22.343-12.214-.045-22.267 9.821-22.343 22.065l-.116 18.517c-27.795-4.537-52.935-17.188-72.908-35.413l14.191-14.014c2.947-2.911 2.977-7.659.066-10.606-2.91-2.947-7.659-2.978-10.606-.066l-14.191 14.014c-17.971-20.198-30.305-45.492-34.49-73.346l18.512.116h.141c12.179 0 22.126-9.869 22.202-22.065.076-12.244-9.822-22.267-22.065-22.343l-18.517-.116c4.533-27.711 17.232-52.846 35.487-72.839l13.945 14.101c1.467 1.483 3.399 2.226 5.333 2.226 1.905 0 3.812-.722 5.273-2.167 2.945-2.913 2.971-7.661.059-10.606l-13.937-14.093c20.216-17.999 45.504-30.384 73.273-34.57l-.116 18.523c-.078 12.241 9.82 22.264 22.063 22.341zm-21.853-56.025c-33.672 4.554-65.356 20.122-89.638 44.148-24.21 23.955-40.088 55.355-45.048 88.864l-15.257-.096c10.45-77.63 72.304-138.696 150.04-148.17zm.264-42.087-.073 11.713c-86.033 9.591-154.586 77.269-165.258 163.196l-11.704-.073c10.813-92.819 83.962-165.166 177.035-174.836zm-217.961 201.878c-1.352-1.369-2.09-3.183-2.078-5.107.024-3.957 3.252-7.159 7.204-7.159h.046l111.421.699c1.924.012 3.729.772 5.081 2.142 1.352 1.369 2.09 3.183 2.078 5.107s-.772 3.729-2.142 5.081c-1.37 1.353-3.177 2.104-5.107 2.078l-111.421-.699c-1.925-.012-3.729-.773-5.082-2.142zm67.473 17.534 15.26.096c4.554 33.684 20.092 65.329 44.136 89.633 23.976 24.235 55.342 40.093 88.87 45.06l-.096 15.254c-77.762-10.448-138.694-72.126-148.17-150.043zm177.187 212.711c-.012 1.924-.772 3.729-2.142 5.081-1.369 1.352-3.193 2.097-5.107 2.078-3.972-.025-7.184-3.277-7.159-7.25l.699-111.421c.012-1.924.772-3.729 2.142-5.081 1.358-1.341 3.154-2.079 5.061-2.079h.046c1.924.012 3.729.772 5.081 2.142 1.352 1.369 2.09 3.183 2.078 5.107zm15.223-35.562.073-11.71c35.703-3.98 69.262-18.041 97.272-40.799 3.215-2.612 3.703-7.335 1.091-10.55-2.611-3.214-7.335-3.703-10.55-1.091-25.307 20.562-55.537 33.402-87.718 37.324l.096-15.259c34.058-4.603 66.02-20.448 90.422-44.932 23.8-23.88 39.357-54.929 44.275-88.079l15.251.096c-4.283 31.836-17.289 61.629-37.884 86.584-2.636 3.195-2.184 7.922 1.011 10.559 1.398 1.153 3.088 1.715 4.77 1.715 2.161 0 4.306-.929 5.789-2.726 22.798-27.625 37.045-60.706 41.431-96.037l11.703.073c-10.813 91.473-85.222 165.185-177.032 174.832zm212.835-189.608c-.015 0-.03 0-.046 0l-111.421-.699c-1.924-.012-3.729-.772-5.081-2.142-1.352-1.369-2.09-3.183-2.078-5.107s.772-3.729 2.142-5.081c1.358-1.341 3.154-2.078 5.061-2.078h.047l111.421.699c1.924.012 3.729.772 5.081 2.142 1.352 1.369 2.09 3.183 2.078 5.107-.025 3.957-3.252 7.159-7.204 7.159z"/></g></g></svg>