<?xml version="1.0"?>
<svg xmlns="http://www.w3.org/2000/svg" viewBox="0 0 512 512" width="512" height="512"><g id="Fill_out_line" data-name="Fill out line"><path d="M424,192V320a168,168,0,1,1-336,0V192A167.99305,167.99305,0,0,1,369.71,68.33984c1.73,1.58008,3.42,3.21021,5.08,4.87012A167.43451,167.43451,0,0,1,424,192Z" style="fill:#2f4054"/><path d="M424,192V320a168.02019,168.02019,0,0,1-313.72,83.65991A168.00467,168.00467,0,0,0,391.41,294.14014Q391.995,287.1499,392,280V152a167.11539,167.11539,0,0,0-22.29-83.66016c1.73,1.58008,3.42,3.21021,5.08,4.87012A167.74367,167.74367,0,0,1,424,192Z" style="fill:#262d43"/><rect x="38.11146" y="372.22291" width="35.77709" height="71.55418" transform="translate(-176.55107 68.11767) rotate(-26.56505)" style="fill:#efdd9b"/><path d="M115.37833,318.31084,96,328l48,96,19.37833-9.68916a32,32,0,0,0,14.31083-42.93251l-19.37832-38.75666A32,32,0,0,0,115.37833,318.31084Z" style="fill:#e54042"/><path d="M30.74792,334.17064,96.9875,473.27376a16,16,0,0,0,21.60119,7.4319l35.373-17.68652a16,16,0,0,0,7.29035-21.18978L95.0125,302.72624a16,16,0,0,0-21.60119-7.4319l-35.373,17.68652A16,16,0,0,0,30.74792,334.17064Z" style="fill:#efbf33"/><rect x="420.22291" y="390.11146" width="71.55418" height="35.77709" transform="translate(-112.85569 633.39565) rotate(-63.43495)" style="fill:#efdd9b"/><path d="M396.62167,318.31084,416,328l-48,96-19.37833-9.68916a32,32,0,0,1-14.31083-42.93251l19.37832-38.75666A32,32,0,0,1,396.62167,318.31084Z" style="fill:#e54042"/><path d="M481.25208,334.17064,415.0125,473.27376a16,16,0,0,1-21.60119,7.4319l-35.373-17.68652a16,16,0,0,1-7.29035-21.18978L416.9875,302.72624a16,16,0,0,1,21.60119-7.4319l35.373,17.68652A16,16,0,0,1,481.25208,334.17064Z" style="fill:#efbf33"/><circle cx="256" cy="360" r="96" style="fill:#efdd9b"/><path d="M328,360a71.90006,71.90006,0,1,1-56-70.22A72.04523,72.04523,0,0,1,328,360Z" style="fill:#262d43"/><circle cx="256" cy="360" r="56" style="fill:#2f4054"/><ellipse cx="136" cy="192" rx="72" ry="96" style="fill:#396796"/><path d="M424,192v83.74a71.42632,71.42632,0,0,1-32.59,18.40015Q391.995,287.1499,392,280V152a167.30882,167.30882,0,0,0-12.59-63.91016,64.40456,64.40456,0,0,1,9.56,1.22022A167.27394,167.27394,0,0,1,424,192Z" style="fill:#1a1e38"/><ellipse cx="376" cy="192" rx="72" ry="96" style="fill:#396796"/><ellipse cx="136" cy="192" rx="48" ry="72" style="fill:#8bcde8"/><ellipse cx="376" cy="192" rx="48" ry="72" style="fill:#8bcde8"/><path d="M324.81,381.25a71.80087,71.80087,0,0,1-16.02,27.7l-14.32-8.27-14.72-8.49a40.01631,40.01631,0,0,1-47.5,0l-14.72,8.5-14.32,8.26A71.80087,71.80087,0,0,1,187.19,381.25l14.33-8.27,14.74-8.51A38.88031,38.88031,0,0,1,216,360a40.00522,40.00522,0,0,1,24-36.66016V289.78a72.79892,72.79892,0,0,1,32,0v33.55981A40.00522,40.00522,0,0,1,296,360a41.2814,41.2814,0,0,1-.25,4.47l14.73,8.51Z" style="fill:#efdd9b"/><circle cx="256" cy="360" r="16" style="fill:#262d43"/><path d="M232,360a24,24,0,1,0,24-24A24.02718,24.02718,0,0,0,232,360Zm32,0a8,8,0,1,1-8-8A8.00917,8.00917,0,0,1,264,360Z"/><path d="M256,440a80,80,0,1,0-80-80A80.09041,80.09041,0,0,0,256,440Zm-39.34131-29.57495,15.33643-8.85132a48.04741,48.04741,0,0,0,48.00976,0l15.33643,8.85132a63.79463,63.79463,0,0,1-78.68262,0ZM320,360a64.228,64.228,0,0,1-.62891,8.87207L304,359.99609a48.00887,48.00887,0,0,0-24-41.56445v-17.745A64.08977,64.08977,0,0,1,320,360Zm-56-63.48218v26.822a7.99906,7.99906,0,0,0,4.79688,7.33057A32.01191,32.01191,0,0,1,288,360a33.42719,33.42719,0,0,1-.20312,3.604A7.99953,7.99953,0,0,0,291.75,371.398l23.24023,13.41968a64.02325,64.02325,0,0,1-8.02832,13.84082L283.749,385.26123a8.001,8.001,0,0,0-8.74414.48828,32.01782,32.01782,0,0,1-38.00976,0,8.00079,8.00079,0,0,0-8.74414-.48828l-23.21289,13.39722a64.01329,64.01329,0,0,1-8.02784-13.8396l23.24854-13.41992a8.0005,8.0005,0,0,0,3.94824-7.84717A30.963,30.963,0,0,1,224,360a32.01191,32.01191,0,0,1,19.20312-29.32959A7.99906,7.99906,0,0,0,248,323.33984v-26.822a62.05645,62.05645,0,0,1,16,0Zm-32,4.16883v17.745A48.0099,48.0099,0,0,0,208,360v.001l-15.37085,8.87256A63.87273,63.87273,0,0,1,232,300.68665Z"/><path d="M491.57812,376.84473l-17.59667-8.79847,14.49316-30.4364v.00049A24.12225,24.12225,0,0,0,477.54,305.82568l-35.373-17.68652A23.90837,23.90837,0,0,0,432,285.60059V266.91235C446.87744,248.1311,456,221.70752,456,192c0-46.57336-22.41309-85.085-54.28857-98.70886A176.70486,176.70486,0,0,0,380.44824,67.5542,175.98068,175.98068,0,0,0,110.2998,93.28662C78.41821,106.90637,56,145.42139,56,192c0,29.70752,9.1228,56.1311,24,74.91235v18.68726a23.90153,23.90153,0,0,0-10.167,2.53955L34.46,305.82568a24.12183,24.12183,0,0,0-10.93457,31.78418l14.49341,30.4364-17.59692,8.79847a8.00033,8.00033,0,0,0-3.57715,10.73291l32,64a7.99422,7.99422,0,0,0,10.73144,3.57861l16.093-8.04321,14.09546,29.60083a23.9595,23.9595,0,0,0,32.40234,11.147L157.54,470.17432a23.69727,23.69727,0,0,0,3.36035-2.05127,176.15019,176.15019,0,0,0,190.19922,0,23.69727,23.69727,0,0,0,3.36035,2.05127l35.373,17.68652a24.00036,24.00036,0,0,0,32.40234-11.14746L436.33057,447.113l16.09326,8.04321a7.99422,7.99422,0,0,0,10.73144-3.57861l32-64A8.00033,8.00033,0,0,0,491.57812,376.84473ZM440,192c0,49.3457-28.1123,88-64,88s-64-38.6543-64-88,28.1123-88,64-88S440,142.6543,440,192ZM256,32A158.92,158.92,0,0,1,369.13672,78.87012q4.40478,4.39965,8.47021,9.15551C377.07227,88.01245,376.5376,88,376,88c-44.85938,0-80,45.68213-80,104s35.14062,104,80,104a66.91528,66.91528,0,0,0,40-13.50073v8.739a23.89782,23.89782,0,0,0-6.23535,8.04834l-6.4043,13.44922-3.16406-1.582a40.02579,40.02579,0,0,0-47.97266,9.40369,103.99,103.99,0,0,0-192.44726-.00013,40.026,40.026,0,0,0-47.97461-9.40258l-3.16187,1.58093-6.40454-13.44959A23.90145,23.90145,0,0,0,96,291.23828v-8.739A66.91474,66.91474,0,0,0,136,296c44.85938,0,80-45.68213,80-104S180.85938,88,136,88c-.5437,0-1.085.01245-1.62573.02588A159.59119,159.59119,0,0,1,256,32ZM357.20752,409.65735l-5.01709-2.50647a24.10517,24.10517,0,0,1-2.709-1.60571,104.02813,104.02813,0,0,0,8.82714-64.26587l2.53809-5.0835A23.99546,23.99546,0,0,1,393.042,325.46533l3.438,1.719Zm-202.415.00012L115.52,327.18433l3.436-1.718a23.99508,23.99508,0,0,1,32.19629,10.728l2.53931,5.0852a104.02405,104.02405,0,0,0,8.82666,64.26538,24.13246,24.13246,0,0,1-2.71362,1.6084ZM168,360a88,88,0,1,1,88,88A88.09957,88.09957,0,0,1,168,360ZM136,104c35.8877,0,64,38.6543,64,88s-28.1123,88-64,88-64-38.6543-64-88S100.1123,104,136,104ZM59.57812,437.26807,34.7334,387.57764l10.16553-5.08277,23.89013,50.16968Zm90.80567,18.5957-35.37305,17.68652A8.00025,8.00025,0,0,1,104.21,469.83447L37.9707,330.731v-.00049a8.04022,8.04022,0,0,1,3.64551-10.59424l10.80615-5.40308,68.42237,136.84449,14.31054-7.15528L66.73291,307.57788l10.25635-5.12817A8.00025,8.00025,0,0,1,87.79,306.16553l66.23926,139.104A8.04022,8.04022,0,0,1,150.38379,455.86377Zm19.55225-.95667a23.86785,23.86785,0,0,0-1.46143-16.517l-6.802-14.28418,5.27759-2.63672a40.23541,40.23541,0,0,0,3.70507-2.10889,103.90346,103.90346,0,0,0,170.68946.00012,40.16843,40.16843,0,0,0,3.70019,2.10633l5.28223,2.639-6.80176,14.28382A23.86792,23.86792,0,0,0,342.064,454.9071a160.1381,160.1381,0,0,1-172.12792,0ZM407.79,469.834a7.9999,7.9999,0,0,1-10.80078,3.71631l-35.373-17.68652A8.04064,8.04064,0,0,1,357.9707,445.269L424.21,306.166a7.98568,7.98568,0,0,1,10.80078-3.71631l10.25635,5.12817L376.84473,444.42236l14.31054,7.15528,68.42237-136.84449,10.80615,5.40308a8.04022,8.04022,0,0,1,3.64551,10.59424v.00049Zm44.63184-32.56591-9.21094-4.60352,23.89013-50.16968,10.16553,5.08277Z"/><path d="M136,272c15.582,0,30-8.75439,40.59766-24.65088C186.53027,232.45068,192,212.794,192,192s-5.46973-40.45068-15.40234-55.34912C166,120.75439,151.582,112,136,112s-30,8.75439-40.59766,24.65088C85.46973,151.54932,80,171.20605,80,192s5.46973,40.45068,15.40234,55.34912C106,263.24561,120.418,272,136,272Zm0-144c21.68262,0,40,29.30859,40,64s-18.31738,64-40,64-40-29.30859-40-64S114.31738,128,136,128Z"/><path d="M335.40234,136.65088C325.46973,151.54932,320,171.20605,320,192s5.46973,40.45068,15.40234,55.34912C346,263.24561,360.418,272,376,272s30-8.75439,40.59766-24.65088C426.53027,232.45068,432,212.794,432,192s-5.46973-40.45068-15.40234-55.34912C406,120.75439,391.582,112,376,112S346,120.75439,335.40234,136.65088ZM416,192c0,34.69141-18.31738,64-40,64s-40-29.30859-40-64,18.31738-64,40-64S416,157.30859,416,192Z"/></g></svg>
