<svg id="Capa_1" enable-background="new 0 0 512 512" height="512" viewBox="0 0 512 512" width="512" xmlns="http://www.w3.org/2000/svg"><g><g><g><path d="m297.417 140.033c-23.801 0-42.897-20.421-41.18-44.563 1.41-19.817 17.108-36.027 36.872-38.05 2.782-.285 5.513-.289 8.171-.041 3.628.338 6.974-1.954 8.161-5.398 8.925-25.883 33.481-44.481 62.396-44.481 21.694 0 40.935 10.471 52.965 26.631 3.067 4.12 7.852 6.537 12.988 6.504.105-.001.209-.001.314-.001 27.731 0 50.158 22.712 49.693 50.549-.455 27.251-23.256 48.851-50.511 48.851h-139.869z" fill="#ddeafb"/><path d="m438.104 40.633c-.105 0-.209 0-.314.001-5.136.034-9.921-2.384-12.988-6.504-12.03-16.159-31.271-26.63-52.965-26.63-3.918 0-7.751.352-11.481 1.007 16.908 2.978 31.595 12.392 41.445 25.623 3.067 4.12 7.852 6.537 12.988 6.504.104-.001.209-.001.314-.001 27.731 0 50.158 22.712 49.693 50.549-.455 27.251-23.256 48.851-50.511 48.851h23c27.254 0 50.056-21.6 50.511-48.851.465-27.837-21.961-50.549-49.692-50.549z" fill="#bed8fb"/><g><g><path d="m438.233 173.167h-.023c-1.221 0-2.272-.821-2.613-1.993-8.026-27.564-33.476-47.707-63.631-47.707-11.275 0-21.887 2.825-31.179 7.795-3.642 1.948-8.163.93-10.478-2.49-8.934-13.197-24.04-21.872-41.176-21.872-4.008 0-7.903.477-11.635 1.374-4.043.972-8.218-1.2-9.524-5.148-12.002-36.299-46.202-62.492-86.524-62.492-50.322 0-91.117 40.794-91.117 91.117 0 1.143.029 2.278.077 3.409.047 1.119-.32 2.217-1.009 3.1l-.071.091c-.863 1.106-2.17 1.759-3.571 1.835-44.09 2.402-79.009 39.258-78.247 84.123.771 45.352 38.501 81.391 83.861 81.391h345.872c36.419 0 66.776-28.971 67.249-65.387.48-37.001-29.37-67.146-66.261-67.146z" fill="#ecf4ff"/><path d="m438.233 173.167h-.023c-1.221 0-2.272-.821-2.613-1.993-8.026-27.564-33.476-47.707-63.631-47.707-11.275 0-21.887 2.825-31.179 7.795-3.642 1.948-8.163.93-10.478-2.49-8.934-13.197-24.04-21.872-41.176-21.872-4.008 0-7.903.477-11.635 1.374-4.043.972-8.218-1.2-9.524-5.148-12.002-36.299-46.202-62.492-86.524-62.492-50.322 0-91.117 40.794-91.117 91.117 0 1.143.029 2.278.077 3.409.047 1.119-.32 2.217-1.009 3.1l-.071.091c-.863 1.106-2.17 1.759-3.571 1.835-44.09 2.402-79.009 39.258-78.247 84.123.771 45.352 38.501 81.391 83.861 81.391h345.872c36.419 0 66.776-28.971 67.249-65.387.48-37.001-29.37-67.146-66.261-67.146z" fill="#ecf4ff"/><path d="m438.233 173.167h-.023c-1.221 0-2.272-.821-2.613-1.993-8.026-27.564-33.476-47.707-63.631-47.707-3.921 0-7.759.349-11.492 1.004 24.976 4.375 45.142 22.728 52.123 46.703.341 1.172 1.392 1.993 2.613 1.993h.023c36.891 0 66.741 30.145 66.261 67.146-.472 36.417-30.829 65.387-67.249 65.387h23c36.419 0 66.776-28.97 67.249-65.387.48-37.001-29.37-67.146-66.261-67.146z" fill="#ddeafb"/></g></g></g><path d="m198.017 444.461v-29.021c0-2.858-1.525-5.499-4-6.928l-25.134-14.512c-2.475-1.429-5.525-1.429-8 0l-25.133 14.511c-2.475 1.429-4 4.07-4 6.928v29.021c0 2.858 1.525 5.499 4 6.928l25.133 14.511c2.475 1.429 5.525 1.429 8 0l25.133-14.511c2.476-1.428 4.001-4.069 4.001-6.927z" fill="#ddeafb"/><path d="m380.25 444.461v-29.021c0-2.858-1.525-5.499-4-6.928l-25.133-14.512c-2.475-1.429-5.525-1.429-8 0l-25.133 14.511c-2.475 1.429-4 4.07-4 6.928v29.021c0 2.858 1.525 5.499 4 6.928l25.133 14.511c2.475 1.429 5.525 1.429 8 0l25.133-14.511c2.475-1.428 4-4.069 4-6.927z" fill="#ddeafb"/><g fill="#bed8fb"><path d="m376.25 408.511-25.133-14.511c-2.475-1.429-5.525-1.429-8 0l-7.5 4.33 17.633 10.181c2.475 1.429 4 4.07 4 6.928v29.021c0 2.858-1.525 5.499-4 6.928l-17.633 10.181 7.5 4.33c2.475 1.429 5.525 1.429 8 0l25.133-14.511c2.475-1.429 4-4.07 4-6.928v-29.021c0-2.858-1.525-5.499-4-6.928z"/><path d="m194.017 408.511-25.134-14.511c-2.475-1.429-5.525-1.429-8 0l-7.5 4.33 17.633 10.181c2.475 1.429 4 4.07 4 6.928v29.021c0 2.858-1.525 5.499-4 6.928l-17.633 10.181 7.5 4.33c2.475 1.429 5.525 1.429 8 0l25.133-14.511c2.475-1.429 4-4.07 4-6.928v-29.021c.001-2.858-1.524-5.499-3.999-6.928z"/></g></g><g><path d="m106.434 298.2h-16.1c-41.54 0-75.334-33.795-75.334-75.334 0-41.516 33.756-75.296 75.264-75.333h.07c41.539 0 75.333 33.794 75.333 75.333 0 4.143 3.358 7.5 7.5 7.5s7.5-3.357 7.5-7.5c0-47.275-36.506-86.18-82.808-90.017-.005-.365-.025-.737-.025-1.099 0-17.072 5.109-33.49 14.775-47.478 2.355-3.407 1.501-8.079-1.906-10.434-3.408-2.354-8.079-1.501-10.434 1.906-11.406 16.506-17.436 35.872-17.436 56.006 0 .362.002.727.006 1.091-46.317 3.822-82.839 42.739-82.839 90.025 0 49.811 40.523 90.334 90.333 90.334h16.1c4.142 0 7.5-3.357 7.5-7.5s-3.357-7.5-7.499-7.5z"/><path d="m441.747 165.75c-2.254-6.582-5.392-12.695-9.252-18.229l5.739.012c31.54 0 57.2-25.66 57.2-57.2s-25.66-57.199-57.2-57.199c-1.561 0-3.136.066-4.716.199-13.519-20.683-36.655-33.333-61.551-33.333-31.954 0-59.655 20.206-69.633 49.935-1.589-.156-3.188-.234-4.788-.234-15.73 0-30.362 7.718-39.42 20.068-4.452-5.512-9.5-10.563-15.071-15.026-17.395-13.935-39.273-21.608-61.604-21.608-21.286 0-41.556 6.676-58.619 19.305-3.329 2.464-4.031 7.161-1.566 10.49 2.464 3.329 7.161 4.03 10.49 1.566 14.461-10.704 31.645-16.361 49.695-16.361 36.937 0 68.923 23.782 79.77 58.519-17.757 9.918-29.287 28.845-29.287 49.946 0 4.143 3.358 7.5 7.5 7.5s7.5-3.357 7.5-7.5c0-17.263 10.455-32.549 26.033-38.991.005-.001.02-.003.02-.003 5.13-2.127 10.562-3.205 16.148-3.205 16.236 0 31.218 9.493 38.166 24.186.944 1.996 2.72 3.475 4.854 4.042 2.134.564 4.409.164 6.22-1.1 9.893-6.909 21.509-10.562 33.593-10.562 26.854 0 50.264 18.141 56.926 44.115.871 3.398 3.972 5.73 7.487 5.634 0 0 1.419-.049 1.853-.049 32.404 0 58.767 26.362 58.767 58.767s-26.364 58.766-58.768 58.766-58.767-26.362-58.767-58.767c0-4.143-3.358-7.5-7.5-7.5s-7.5 3.357-7.5 7.5c0 23.962 11.491 45.283 29.244 58.767h-257.276c-4.142 0-7.5 3.357-7.5 7.5s3.358 7.5 7.5 7.5h301.799c40.675 0 73.767-33.092 73.767-73.767 0-39.497-31.202-71.845-70.253-73.683zm-104.999-40.834c-10.507-15.722-28.413-25.516-47.615-25.516-4.739 0-9.399.574-13.931 1.712-2.021-6.166-4.668-12.108-7.854-17.749 5.676-11.281 17.403-18.663 30.198-18.663 2.808 0 5.606.348 8.316 1.033 1.951.496 4.02.183 5.74-.864s2.946-2.742 3.403-4.703c6.203-26.593 29.627-45.166 56.962-45.166 17.901 0 34.661 8.222 45.668 21.953-21.734 8.335-36.601 29.29-36.601 53.38 0 4.143 3.358 7.5 7.5 7.5s7.5-3.357 7.5-7.5c0-20.517 14.604-37.958 34.749-41.542.047-.007 5.05-.658 7.451-.658 23.269 0 42.2 18.931 42.2 42.199 0 23.27-18.931 42.2-42.185 42.2l-19.734-.04c-12.816-10.412-29.099-16.526-46.548-16.526-12.42.001-24.448 3.075-35.219 8.95z"/><path d="m197.767 402.016-25.134-14.511c-4.779-2.759-10.718-2.76-15.5 0l-25.135 14.512c-4.779 2.761-7.748 7.904-7.748 13.423v29.021c0 5.521 2.97 10.664 7.75 13.423l25.132 14.51c2.391 1.381 5.071 2.071 7.752 2.071 2.68 0 5.36-.689 7.749-2.07l25.133-14.511c4.781-2.759 7.75-7.902 7.75-13.423v-29.021c.001-5.519-2.969-10.663-7.749-13.424zm-7.25 42.445c0 .178-.096.344-.25.433l-25.135 14.512c-.153.088-.343.089-.499-.001l-25.134-14.511c-.154-.089-.249-.255-.249-.433v-29.021c0-.179.096-.345.25-.434l25.133-14.511c.077-.044.164-.066.25-.066s.173.022.25.066l25.132 14.51c.155.09.251.256.251.435v29.021z"/><path d="m380 402.016-25.134-14.511c-4.779-2.759-10.718-2.76-15.499 0l-25.135 14.512c-4.779 2.761-7.748 7.904-7.748 13.423v29.021c0 5.521 2.97 10.664 7.75 13.423l25.132 14.51c2.391 1.381 5.071 2.071 7.752 2.071 2.68 0 5.36-.689 7.75-2.07l25.133-14.511c4.781-2.759 7.751-7.902 7.751-13.423v-29.021c-.002-5.519-2.971-10.663-7.752-13.424zm-7.25 42.445c0 .178-.096.344-.25.433l-25.135 14.512c-.154.088-.344.089-.498-.001l-25.134-14.511c-.154-.089-.249-.255-.249-.433v-29.021c0-.179.096-.345.25-.434l25.133-14.511c.077-.044.164-.066.251-.066.086 0 .173.022.25.066l25.132 14.51c.155.09.252.256.252.435v29.021z"/><path d="m73.767 331.333c-4.142 0-7.5 3.357-7.5 7.5v66.267c0 4.143 3.358 7.5 7.5 7.5s7.5-3.357 7.5-7.5v-66.267c0-4.143-3.358-7.5-7.5-7.5z"/><path d="m73.767 447.3c-4.142 0-7.5 3.357-7.5 7.5v49.7c0 4.143 3.358 7.5 7.5 7.5s7.5-3.357 7.5-7.5v-49.7c0-4.143-3.358-7.5-7.5-7.5z"/><path d="m438.233 331.333c-4.142 0-7.5 3.357-7.5 7.5v66.267c0 4.143 3.358 7.5 7.5 7.5s7.5-3.357 7.5-7.5v-66.267c0-4.143-3.358-7.5-7.5-7.5z"/><path d="m438.233 447.3c-4.142 0-7.5 3.357-7.5 7.5v49.7c0 4.143 3.358 7.5 7.5 7.5s7.5-3.357 7.5-7.5v-49.7c0-4.143-3.358-7.5-7.5-7.5z"/><path d="m256 430.733c-4.142 0-7.5 3.357-7.5 7.5v66.267c0 4.143 3.358 7.5 7.5 7.5s7.5-3.357 7.5-7.5v-66.267c0-4.142-3.358-7.5-7.5-7.5z"/><path d="m256 331.333c-4.142 0-7.5 3.357-7.5 7.5v49.7c0 4.143 3.358 7.5 7.5 7.5s7.5-3.357 7.5-7.5v-49.7c0-4.143-3.358-7.5-7.5-7.5z"/></g></g></svg>